# xmcd CD database file
#
# Track frame offsets:
#	183
#	16810
#	31753
#
# Disc length: 637 seconds
#
# Revision: 3
# Processed by: cddbd v1.5PL3 Copyright (c) Steve Scherf et al.
# Submitted via: CDex 1.50
#
DISCID=13027b03
DTITLE=Vaya Con Dios - Heading For A Fall
DYEAR=1992
DGENRE=Pop
TTITLE0=Heading For A Fall
TTITLE1=Muddy Waters
TTITLE2=Sally
EXTD=YEAR: 1992
EXTT0=
EXTT1=
EXTT2=
PLAYORDER=
